<?xml version="1.0" standalone="no"?><!DOCTYPE svg PUBLIC "-//W3C//DTD SVG 1.1//EN" "http://www.w3.org/Graphics/SVG/1.1/DTD/svg11.dtd"><svg t="1733107118181" class="icon" viewBox="0 0 1083 1024" version="1.1" xmlns="http://www.w3.org/2000/svg" p-id="12633" xmlns:xlink="http://www.w3.org/1999/xlink" width="211.5234375" height="200"><path d="M1071.662489 405.955481c-6.414646-34.072602-27.324728-56.065676-53.982998-56.065676h-4.665198A131.042063 131.042063 0 0 1 882.222152 219.097664c0-22.826144 10.91323-48.817959 11.329765-49.900951a70.811032 70.811032 0 0 0-23.82583-85.556388L734.185441 8.164095 732.186071 7.16441a79.974813 79.974813 0 0 0-84.390089 16.828034C633.133933 39.154335 582.816447 82.05749 544.245261 82.05749c-38.904414 0-89.471822-43.819533-104.13387-59.148038A79.558277 79.558277 0 0 0 355.721302 5.331654L215.515459 82.307411l-2.082678 1.332914a70.644418 70.644418 0 0 0-23.992444 85.306467c0.416535 1.166299 11.413072 26.908192 11.413073 49.984258C200.85341 291.324916 142.121907 349.889805 69.977961 349.889805H64.479693c-25.8252 0-46.651974 21.993073-53.149928 56.065676C10.829923 408.204773 0 465.936591 0 512.005415 0 558.157546 10.829923 615.639443 11.329765 617.972042c6.414646 34.072602 27.324728 56.065676 53.982999 56.065676H69.977961c72.143946 0 130.875449 58.731503 130.875449 130.958755 0 22.909452-10.996537 48.817959-11.413073 49.817644-13.245828 29.990555-3.082363 66.645677 23.82583 85.473081l132.874819 74.559851 1.99937 0.916378a78.308671 78.308671 0 0 0 84.806624-17.744411c18.577483-19.993703 68.811662-61.647251 105.800013-61.647252 39.987406 0 91.637806 46.568667 106.466469 62.896858a77.142371 77.142371 0 0 0 84.556703 18.327561l137.873245-75.892764 1.99937-1.332914a70.644418 70.644418 0 0 0 23.909137-85.389774c-0.499843-1.082992-11.413072-26.908192-11.413072-49.984258 0-72.227253 58.648196-130.958756 130.875448-130.958755h5.414961c25.8252 0 46.818588-21.993073 53.233235-56.065676 0.416535-2.332599 11.329765-59.897802 11.329765-105.966627 0-46.152131-10.829923-103.717335-11.329765-106.049934z m-67.228827 106.049934c0 29.823941-5.914804 68.145205-8.663938 84.140167a209.434041 209.434041 0 0 0-192.189471 208.767584c0 30.906933 9.74693 60.480952 14.995277 74.143316l-117.546313 64.979535a382.212959 382.212959 0 0 0-46.068824-40.653863c-40.820477-30.240476-79.974813-45.652289-116.2134-45.652289-35.988666 0-74.809773 14.995277-115.463636 44.902525-23.076066 16.828033-39.987406 33.57276-45.818903 39.820792l-113.04773-63.313393a217.431522 217.431522 0 0 0 14.995278-74.143316c0-109.465525-83.890246-199.937032-192.189472-208.850891a565.738492 565.738492 0 0 1-8.663938-84.140167c0-29.907248 5.914804-68.228512 8.663938-84.140167a209.350733 209.350733 0 0 0 192.189472-208.850891c0-30.740319-9.74693-60.397645-14.995278-73.976702L384.878786 78.808513c5.248347 5.248347 22.492916 22.076381 45.90221 38.821107 40.070713 28.574334 78.225364 42.986462 113.464265 42.986462 34.988981 0 72.810402-14.162206 112.631195-42.153391 23.659215-16.661419 40.820477-33.322839 45.818903-37.988036l115.880171 64.396386c-5.248347 13.49575-14.995277 43.153076-14.995277 74.143316 0 109.382218 83.890246 199.937032 192.189471 208.767583 2.749134 16.07827 8.663938 54.566148 8.663938 84.223475z" p-id="12634" fill="#ffffff"></path><path d="M539.163528 318.649644a192.855928 192.855928 0 0 0-192.689314 192.606007A192.855928 192.855928 0 0 0 539.163528 703.944965a192.855928 192.855928 0 0 0 192.606007-192.606007 192.855928 192.855928 0 0 0-192.606007-192.606007z m114.130723 192.606007a114.130722 114.130722 0 0 1-228.178138 0c0-62.896858 51.06725-114.130722 114.047415-114.130722 62.896858 0 114.130722 51.233864 114.130723 114.130722z" p-id="12635" fill="#ffffff"></path></svg>